<svg id="visual" viewBox="0 0 900 600" width="900" height="600" xmlns="http://www.w3.org/2000/svg" xmlns:xlink="http://www.w3.org/1999/xlink" version="1.1"><g stroke-width="1" stroke-linejoin="bevel"><path d="M385 261L336 295L391 386Z" fill="#00101c" stroke="#00101c"></path><path d="M527 270L435 220L385 261Z" fill="#00101c" stroke="#00101c"></path><path d="M385 261L277 185L336 295Z" fill="#00101c" stroke="#00101c"></path><path d="M391 386L527 270L385 261Z" fill="#19435d" stroke="#19435d"></path><path d="M332 483L401 477L391 386Z" fill="#19435d" stroke="#19435d"></path><path d="M391 386L539 426L527 270Z" fill="#15384f" stroke="#15384f"></path><path d="M336 295L266 414L391 386Z" fill="#1d4e6b" stroke="#1d4e6b"></path><path d="M527 270L460 175L435 220Z" fill="#277297" stroke="#277297"></path><path d="M387 137L277 185L385 261Z" fill="#00101c" stroke="#00101c"></path><path d="M266 414L332 483L391 386Z" fill="#246688" stroke="#246688"></path><path d="M401 477L539 426L391 386Z" fill="#0c2435" stroke="#0c2435"></path><path d="M387 137L385 261L435 220Z" fill="#0c2435" stroke="#0c2435"></path><path d="M336 295L179 280L266 414Z" fill="#1d4e6b" stroke="#1d4e6b"></path><path d="M539 426L578 324L527 270Z" fill="#19435d" stroke="#19435d"></path><path d="M527 270L578 176L460 175Z" fill="#297ea6" stroke="#297ea6"></path><path d="M460 175L387 137L435 220Z" fill="#15384f" stroke="#15384f"></path><path d="M179 280L228 429L266 414Z" fill="#15384f" stroke="#15384f"></path><path d="M266 414L228 429L332 483Z" fill="#1d4e6b" stroke="#1d4e6b"></path><path d="M401 477L497 497L539 426Z" fill="#297ea6" stroke="#297ea6"></path><path d="M473 600L497 497L401 477Z" fill="#00101c" stroke="#00101c"></path><path d="M582 488L591 394L539 426Z" fill="#297ea6" stroke="#297ea6"></path><path d="M539 426L591 394L578 324Z" fill="#0c2435" stroke="#0c2435"></path><path d="M277 185L179 280L336 295Z" fill="#19435d" stroke="#19435d"></path><path d="M387 137L274 131L277 185Z" fill="#277297" stroke="#277297"></path><path d="M277 185L183 211L179 280Z" fill="#246688" stroke="#246688"></path><path d="M274 131L183 211L277 185Z" fill="#081a28" stroke="#081a28"></path><path d="M714 184L578 176L578 324Z" fill="#1d4e6b" stroke="#1d4e6b"></path><path d="M578 324L578 176L527 270Z" fill="#15384f" stroke="#15384f"></path><path d="M460 175L520 69L387 137Z" fill="#00101c" stroke="#00101c"></path><path d="M497 497L582 488L539 426Z" fill="#277297" stroke="#277297"></path><path d="M183 211L126 297L179 280Z" fill="#081a28" stroke="#081a28"></path><path d="M179 280L126 297L228 429Z" fill="#297ea6" stroke="#297ea6"></path><path d="M228 429L206 521L332 483Z" fill="#205a7a" stroke="#205a7a"></path><path d="M332 483L360 600L401 477Z" fill="#1d4e6b" stroke="#1d4e6b"></path><path d="M65 485L206 521L228 429Z" fill="#205a7a" stroke="#205a7a"></path><path d="M319 600L360 600L332 483Z" fill="#081a28" stroke="#081a28"></path><path d="M497 497L584 600L582 488Z" fill="#0c2435" stroke="#0c2435"></path><path d="M582 488L670 366L591 394Z" fill="#1d4e6b" stroke="#1d4e6b"></path><path d="M591 394L670 366L578 324Z" fill="#297ea6" stroke="#297ea6"></path><path d="M578 176L520 69L460 175Z" fill="#15384f" stroke="#15384f"></path><path d="M387 137L398 0L274 131Z" fill="#00101c" stroke="#00101c"></path><path d="M206 521L319 600L332 483Z" fill="#0c2435" stroke="#0c2435"></path><path d="M360 600L473 600L401 477Z" fill="#277297" stroke="#277297"></path><path d="M263 0L171 113L274 131Z" fill="#081a28" stroke="#081a28"></path><path d="M274 131L171 113L183 211Z" fill="#00101c" stroke="#00101c"></path><path d="M183 211L84 188L126 297Z" fill="#277297" stroke="#277297"></path><path d="M520 69L398 0L387 137Z" fill="#112e42" stroke="#112e42"></path><path d="M62 600L217 600L206 521Z" fill="#1d4e6b" stroke="#1d4e6b"></path><path d="M206 521L217 600L319 600Z" fill="#246688" stroke="#246688"></path><path d="M578 176L639 107L520 69Z" fill="#205a7a" stroke="#205a7a"></path><path d="M520 69L494 0L398 0Z" fill="#205a7a" stroke="#205a7a"></path><path d="M714 184L639 107L578 176Z" fill="#15384f" stroke="#15384f"></path><path d="M171 113L84 188L183 211Z" fill="#15384f" stroke="#15384f"></path><path d="M126 297L61 394L228 429Z" fill="#00101c" stroke="#00101c"></path><path d="M473 600L584 600L497 497Z" fill="#277297" stroke="#277297"></path><path d="M582 488L732 481L670 366Z" fill="#297ea6" stroke="#297ea6"></path><path d="M0 285L61 394L126 297Z" fill="#297ea6" stroke="#297ea6"></path><path d="M632 0L494 0L520 69Z" fill="#297ea6" stroke="#297ea6"></path><path d="M790 326L732 313L791 363Z" fill="#277297" stroke="#277297"></path><path d="M670 366L732 313L578 324Z" fill="#205a7a" stroke="#205a7a"></path><path d="M398 0L263 0L274 131Z" fill="#00101c" stroke="#00101c"></path><path d="M171 113L68 112L84 188Z" fill="#1d4e6b" stroke="#1d4e6b"></path><path d="M732 313L714 184L578 324Z" fill="#1d4e6b" stroke="#1d4e6b"></path><path d="M61 394L65 485L228 429Z" fill="#081a28" stroke="#081a28"></path><path d="M660 600L732 481L582 488Z" fill="#277297" stroke="#277297"></path><path d="M584 600L660 600L582 488Z" fill="#081a28" stroke="#081a28"></path><path d="M174 0L68 112L171 113Z" fill="#15384f" stroke="#15384f"></path><path d="M84 188L0 285L126 297Z" fill="#112e42" stroke="#112e42"></path><path d="M263 0L174 0L171 113Z" fill="#205a7a" stroke="#205a7a"></path><path d="M809 85L712 94L714 184Z" fill="#081a28" stroke="#081a28"></path><path d="M714 184L712 94L639 107Z" fill="#205a7a" stroke="#205a7a"></path><path d="M639 107L632 0L520 69Z" fill="#081a28" stroke="#081a28"></path><path d="M0 162L0 285L84 188Z" fill="#15384f" stroke="#15384f"></path><path d="M61 394L0 396L65 485Z" fill="#246688" stroke="#246688"></path><path d="M791 363L732 313L670 366Z" fill="#112e42" stroke="#112e42"></path><path d="M732 313L822 195L714 184Z" fill="#205a7a" stroke="#205a7a"></path><path d="M0 285L0 396L61 394Z" fill="#081a28" stroke="#081a28"></path><path d="M732 481L791 363L670 366Z" fill="#112e42" stroke="#112e42"></path><path d="M682 0L632 0L639 107Z" fill="#297ea6" stroke="#297ea6"></path><path d="M68 112L0 162L84 188Z" fill="#081a28" stroke="#081a28"></path><path d="M0 98L0 162L68 112Z" fill="#15384f" stroke="#15384f"></path><path d="M0 396L0 488L65 485Z" fill="#15384f" stroke="#15384f"></path><path d="M65 485L62 600L206 521Z" fill="#1d4e6b" stroke="#1d4e6b"></path><path d="M0 488L62 600L65 485Z" fill="#1d4e6b" stroke="#1d4e6b"></path><path d="M796 0L682 0L712 94Z" fill="#297ea6" stroke="#297ea6"></path><path d="M712 94L682 0L639 107Z" fill="#0c2435" stroke="#0c2435"></path><path d="M790 326L822 195L732 313Z" fill="#246688" stroke="#246688"></path><path d="M900 287L822 195L790 326Z" fill="#0c2435" stroke="#0c2435"></path><path d="M65 0L0 98L68 112Z" fill="#297ea6" stroke="#297ea6"></path><path d="M174 0L65 0L68 112Z" fill="#112e42" stroke="#112e42"></path><path d="M0 488L0 600L62 600Z" fill="#00101c" stroke="#00101c"></path><path d="M660 600L822 536L732 481Z" fill="#205a7a" stroke="#205a7a"></path><path d="M732 481L822 536L791 363Z" fill="#0c2435" stroke="#0c2435"></path><path d="M791 363L900 287L790 326Z" fill="#19435d" stroke="#19435d"></path><path d="M822 195L809 85L714 184Z" fill="#205a7a" stroke="#205a7a"></path><path d="M65 0L0 0L0 98Z" fill="#297ea6" stroke="#297ea6"></path><path d="M900 404L900 287L791 363Z" fill="#081a28" stroke="#081a28"></path><path d="M822 195L900 134L809 85Z" fill="#205a7a" stroke="#205a7a"></path><path d="M660 600L823 600L822 536Z" fill="#00101c" stroke="#00101c"></path><path d="M900 481L900 404L791 363Z" fill="#297ea6" stroke="#297ea6"></path><path d="M900 481L791 363L822 536Z" fill="#081a28" stroke="#081a28"></path><path d="M900 0L796 0L809 85Z" fill="#297ea6" stroke="#297ea6"></path><path d="M809 85L796 0L712 94Z" fill="#1d4e6b" stroke="#1d4e6b"></path><path d="M900 287L900 211L822 195Z" fill="#15384f" stroke="#15384f"></path><path d="M900 600L900 481L822 536Z" fill="#246688" stroke="#246688"></path><path d="M900 211L900 134L822 195Z" fill="#081a28" stroke="#081a28"></path><path d="M823 600L900 600L822 536Z" fill="#277297" stroke="#277297"></path><path d="M900 134L900 0L809 85Z" fill="#1d4e6b" stroke="#1d4e6b"></path></g></svg>